<svg xmlns="http://www.w3.org/2000/svg" viewBox="464 272 610 494"><clipPath id="mkc"><circle cx="946" cy="583" r="97"/></clipPath><clipPath id="mkk"><polygon points="916.3,466 1083,466 1083,700 789.4,700"/></clipPath>
  <path d="M 699 368.969 C 622.149 376.503, 554.702 422.767, 516.720 494 C 480.503 561.921, 490.986 625.681, 543.799 658.704 C 582.904 683.156, 643.733 685.647, 693.718 664.844 C 700.296 662.106, 701.188 661.381, 703.774 656.670 C 705.335 653.826, 715.862 634.850, 727.168 614.500 C 738.475 594.150, 752.685 568.500, 758.748 557.500 C 772.399 532.732, 802.995 477.400, 815.977 454 C 821.317 444.375, 827.830 432.542, 830.449 427.704 L 835.212 418.908 829.308 411.704 C 812.558 391.265, 784.245 376.389, 751 370.558 C 739.966 368.623, 711.424 367.751, 699 368.969 M 689.303 435.990 C 632.321 444.052, 581.689 496.517, 578.412 550.896 C 576.120 588.928, 600.593 613, 641.549 613 C 672.131 613, 699.727 601.820, 726.044 578.770 C 769.671 540.559, 782.539 482.354, 753.729 453.544 C 739.739 439.554, 713.892 432.512, 689.303 435.990 " fill="#f7f4ed" fill-rule="evenodd"/>
  <path d="M 939.7 309.0 L 981.9 309.0 L 763.6 711.7 Q 753.1 731.0 731.1 731.0 L 688.9 731.0 L 907.2 328.3 Q 917.7 309.0 939.7 309.0 Z" fill="#7a5af8"/>
  <g clip-path="url(#mkk)"><circle cx="946" cy="583" r="97" fill="#f7f4ed"/><g clip-path="url(#mkc)"><path d="M 1044.6 528.1 L 1040.9 524.3 L 1037.0 520.7 L 1032.8 517.1 L 1028.3 513.7 L 1023.6 510.5 L 1018.7 507.5 L 1013.7 504.7 L 1008.6 502.2 L 1006.7 504.9 L 1004.5 507.9 L 1002.2 511.1 L 999.7 514.5 L 997.0 518.1 L 994.3 521.9 L 991.4 525.7 L 988.5 529.7 L 991.8 534.6 L 995.1 539.8 L 998.3 545.1 L 1001.4 550.5 L 1004.3 556.0 L 1007.0 561.6 L 1009.6 567.1 L 1012.0 572.6 L 1016.9 572.4 L 1021.8 572.2 L 1026.5 572.0 L 1031.1 571.9 L 1035.4 571.8 L 1039.4 571.7 L 1043.2 571.7 L 1046.6 571.6 L 1047.3 566.0 L 1047.7 560.4 L 1047.8 554.8 L 1047.7 549.2 L 1047.3 543.7 L 1046.6 538.3 L 1045.7 533.1 Z M 871.9 565.7 L 876.7 566.0 L 881.8 566.4 L 887.1 566.8 L 892.5 567.2 L 898.1 567.7 L 903.9 568.2 L 909.6 568.8 L 915.4 569.3 L 918.2 564.0 L 921.2 558.6 L 924.3 553.3 L 927.4 548.0 L 930.6 542.8 L 933.8 537.7 L 937.0 532.8 L 940.2 528.1 L 936.6 523.9 L 933.0 519.8 L 929.3 515.8 L 925.7 512.0 L 922.1 508.4 L 918.7 505.0 L 915.3 501.8 L 912.0 498.9 L 906.4 501.1 L 900.8 503.5 L 895.2 506.2 L 889.8 509.0 L 884.5 512.1 L 879.4 515.3 L 874.5 518.7 L 869.8 522.2 L 869.4 527.1 L 869.2 532.3 L 869.1 537.6 L 869.3 543.1 L 869.6 548.7 L 870.2 554.4 L 871.0 560.1 Z M 954.8 677.5 L 960.2 675.4 L 965.6 673.0 L 971.1 670.4 L 976.5 667.6 L 981.9 664.5 L 987.1 661.2 L 992.1 657.8 L 997.0 654.2 L 996.2 649.8 L 995.3 645.1 L 994.2 640.2 L 993.0 635.1 L 991.7 629.9 L 990.3 624.6 L 988.8 619.3 L 987.2 613.9 L 981.4 614.0 L 975.5 614.0 L 969.5 613.9 L 963.4 613.7 L 957.2 613.5 L 951.0 613.1 L 944.9 612.7 L 938.9 612.3 L 936.3 617.5 L 933.7 622.7 L 931.1 627.9 L 928.5 632.9 L 926.0 637.9 L 923.5 642.7 L 921.1 647.2 L 918.8 651.6 L 923.1 655.4 L 927.5 659.2 L 932.1 662.8 L 936.6 666.2 L 941.2 669.4 L 945.8 672.4 L 950.3 675.1 Z M 867.8 670.2 L 868.0 668.2 L 868.5 665.9 L 869.2 663.4 L 870.0 660.7 L 871.1 657.7 L 872.3 654.6 L 873.8 651.3 L 875.4 647.9 L 871.8 643.1 L 868.3 638.1 L 865.0 632.8 L 861.9 627.4 L 859.0 621.9 L 856.4 616.3 L 854.0 610.6 L 851.9 605.0 L 848.2 604.7 L 844.8 604.3 L 841.6 603.8 L 838.6 603.3 L 836.0 602.8 L 833.6 602.1 L 831.5 601.5 L 829.8 600.8 L 830.0 606.0 L 830.5 611.3 L 831.3 616.6 L 832.4 621.7 L 833.8 626.8 L 835.5 631.8 L 837.4 636.5 L 839.6 641.1 L 842.2 645.3 L 845.1 649.4 L 848.3 653.4 L 851.8 657.2 L 855.5 660.8 L 859.4 664.2 L 863.5 667.4 Z" fill="#0c0b09"/><path d="M 987.2 613.9 L 989.5 610.6 L 991.8 607.3 L 994.1 603.9 L 996.3 600.5 L 998.5 597.0 L 1000.7 593.5 L 1002.8 590.0 L 1004.8 586.4 L 1006.7 582.9 L 1008.5 579.5 L 1010.3 576.0 L 1012.0 572.6 M 1012.0 572.6 L 1010.4 568.9 L 1008.8 565.3 L 1007.0 561.6 L 1005.2 557.8 L 1003.3 554.2 L 1001.4 550.5 L 999.3 546.9 L 997.3 543.3 L 995.1 539.8 L 992.9 536.3 L 990.7 533.0 L 988.5 529.7 M 988.5 529.7 L 984.7 529.2 L 980.8 528.8 L 976.9 528.4 L 972.9 528.1 L 968.8 527.9 L 964.7 527.7 L 960.6 527.6 L 956.5 527.6 L 952.4 527.6 L 948.3 527.7 L 944.2 527.9 L 940.2 528.1 M 940.2 528.1 L 938.1 531.2 L 935.9 534.4 L 933.8 537.7 L 931.7 541.1 L 929.5 544.5 L 927.4 548.0 L 925.3 551.5 L 923.2 555.1 L 921.2 558.6 L 919.2 562.2 L 917.3 565.8 L 915.4 569.3 M 915.4 569.3 L 917.2 572.9 L 919.0 576.4 L 920.9 580.0 L 922.8 583.7 L 924.7 587.3 L 926.7 591.0 L 928.7 594.6 L 930.8 598.2 L 932.8 601.8 L 934.8 605.4 L 936.8 608.8 L 938.9 612.3 M 938.9 612.3 L 942.9 612.6 L 946.9 612.9 L 951.0 613.1 L 955.1 613.4 L 959.2 613.6 L 963.4 613.7 L 967.5 613.8 L 971.5 613.9 L 975.5 614.0 L 979.5 614.0 L 983.4 614.0 L 987.2 613.9 M 912.0 498.9 L 914.2 500.8 L 916.4 502.9 L 918.7 505.0 L 921.0 507.3 L 923.3 509.6 L 925.7 512.0 L 928.1 514.6 L 930.5 517.1 L 933.0 519.8 L 935.4 522.5 L 937.8 525.3 L 940.2 528.1 M 940.2 528.1 L 944.2 527.9 L 948.3 527.7 L 952.4 527.6 L 956.5 527.6 L 960.6 527.6 L 964.7 527.7 L 968.8 527.9 L 972.9 528.1 L 976.9 528.4 L 980.8 528.8 L 984.7 529.2 L 988.5 529.7 M 988.5 529.7 L 990.4 527.1 L 992.4 524.4 L 994.3 521.9 L 996.1 519.4 L 997.9 516.9 L 999.7 514.5 L 1001.4 512.2 L 1003.0 510.0 L 1004.5 507.9 L 1006.0 505.9 L 1007.3 504.0 L 1008.6 502.2 M 1008.6 502.2 L 1006.7 499.2 L 1004.6 496.3 L 1002.5 493.5 L 1000.2 490.8 L 997.9 488.2 L 995.6 485.6 L 993.2 483.2 L 990.7 480.9 L 988.2 478.7 L 985.6 476.7 L 983.1 474.8 L 980.5 473.1 M 980.5 473.1 L 976.7 472.2 L 972.7 471.5 L 968.8 470.9 L 964.7 470.5 L 960.7 470.1 L 956.6 469.9 L 952.4 469.8 L 948.3 469.9 L 944.2 470.1 L 940.2 470.4 L 936.2 470.9 L 932.2 471.4 M 932.2 471.4 L 930.4 473.0 L 928.6 474.8 L 926.9 476.7 L 925.1 478.7 L 923.3 480.8 L 921.6 483.1 L 919.9 485.5 L 918.3 488.0 L 916.6 490.6 L 915.0 493.3 L 913.5 496.1 L 912.0 498.9 M 1056.5 611.9 L 1056.3 608.7 L 1056.1 605.5 L 1055.7 602.2 L 1055.2 598.8 L 1054.5 595.4 L 1053.8 592.0 L 1052.9 588.5 L 1051.8 585.1 L 1050.7 581.7 L 1049.4 578.3 L 1048.1 574.9 L 1046.6 571.6 M 1046.6 571.6 L 1044.4 571.6 L 1041.9 571.7 L 1039.4 571.7 L 1036.7 571.8 L 1033.9 571.8 L 1031.1 571.9 L 1028.1 572.0 L 1025.0 572.1 L 1021.8 572.2 L 1018.6 572.3 L 1015.3 572.5 L 1012.0 572.6 M 1012.0 572.6 L 1010.3 576.0 L 1008.5 579.5 L 1006.7 582.9 L 1004.8 586.4 L 1002.8 590.0 L 1000.7 593.5 L 998.5 597.0 L 996.3 600.5 L 994.1 603.9 L 991.8 607.3 L 989.5 610.6 L 987.2 613.9 M 987.2 613.9 L 988.2 617.5 L 989.3 621.0 L 990.3 624.6 L 991.3 628.2 L 992.2 631.7 L 993.0 635.1 L 993.9 638.5 L 994.6 641.8 L 995.3 645.1 L 995.9 648.2 L 996.5 651.3 L 997.0 654.2 M 997.0 654.2 L 1000.2 654.6 L 1003.4 654.9 L 1006.6 655.1 L 1009.7 655.2 L 1012.8 655.2 L 1015.8 655.2 L 1018.7 655.1 L 1021.5 654.9 L 1024.2 654.6 L 1026.8 654.2 L 1029.3 653.7 L 1031.7 653.2 M 1031.7 653.2 L 1034.3 650.2 L 1036.8 647.1 L 1039.3 643.8 L 1041.7 640.5 L 1044.0 637.1 L 1046.1 633.6 L 1048.2 630.1 L 1050.1 626.5 L 1051.9 622.9 L 1053.6 619.2 L 1055.1 615.6 L 1056.5 611.9  M 1051.2 525.1 L 1050.6 525.3 L 1049.9 525.6 L 1049.0 526.0 L 1048.1 526.4 L 1047.0 526.9 L 1045.8 527.5 L 1044.6 528.1 M 1044.6 528.1 L 1045.4 531.4 L 1046.1 534.8 L 1046.6 538.3 L 1047.1 541.9 L 1047.5 545.5 L 1047.7 549.2 L 1047.8 552.9 L 1047.8 556.6 L 1047.7 560.4 L 1047.4 564.2 L 1047.1 567.9 L 1046.6 571.6 M 1046.6 571.6 L 1048.1 574.9 L 1049.4 578.3 L 1050.7 581.7 L 1051.8 585.1 L 1052.9 588.5 L 1053.8 592.0 L 1054.5 595.4 L 1055.2 598.8 L 1055.7 602.2 L 1056.1 605.5 L 1056.3 608.7 L 1056.5 611.9 M 1056.5 611.9 L 1057.8 611.9 L 1059.1 611.7 L 1060.2 611.6 L 1061.2 611.4 L 1062.0 611.2 L 1062.8 610.9  M 980.5 473.1 L 983.1 474.8 L 985.6 476.7 L 988.2 478.7 L 990.7 480.9 L 993.2 483.2 L 995.6 485.6 L 997.9 488.2 L 1000.2 490.8 L 1002.5 493.5 L 1004.6 496.3 L 1006.7 499.2 L 1008.6 502.2 M 1008.6 502.2 L 1012.0 503.9 L 1015.4 505.6 L 1018.7 507.5 L 1022.0 509.5 L 1025.2 511.6 L 1028.3 513.7 L 1031.3 516.0 L 1034.2 518.3 L 1037.0 520.7 L 1039.6 523.1 L 1042.2 525.6 L 1044.6 528.1 M 1044.6 528.1 L 1045.8 527.5 L 1047.0 526.9 L 1048.1 526.4 L 1049.0 526.0 L 1049.9 525.6 L 1050.6 525.3 L 1051.2 525.1   M 984.5 469.4 L 983.8 469.9 L 983.0 470.5 L 982.2 471.2 L 981.4 472.1 L 980.5 473.1 M 918.8 651.6 L 920.4 648.7 L 921.9 645.7 L 923.5 642.7 L 925.1 639.5 L 926.8 636.3 L 928.5 632.9 L 930.2 629.6 L 931.9 626.1 L 933.7 622.7 L 935.4 619.2 L 937.1 615.7 L 938.9 612.3 M 938.9 612.3 L 936.8 608.8 L 934.8 605.4 L 932.8 601.8 L 930.8 598.2 L 928.7 594.6 L 926.7 591.0 L 924.7 587.3 L 922.8 583.7 L 920.9 580.0 L 919.0 576.4 L 917.2 572.9 L 915.4 569.3 M 915.4 569.3 L 911.5 569.0 L 907.7 568.6 L 903.9 568.2 L 900.0 567.9 L 896.3 567.5 L 892.5 567.2 L 888.9 566.9 L 885.3 566.6 L 881.8 566.4 L 878.4 566.1 L 875.1 565.9 L 871.9 565.7 M 871.9 565.7 L 869.7 568.9 L 867.7 572.1 L 865.6 575.4 L 863.7 578.7 L 861.9 582.1 L 860.1 585.4 L 858.5 588.8 L 856.9 592.1 L 855.5 595.4 L 854.2 598.6 L 853.0 601.9 L 851.9 605.0 M 851.9 605.0 L 853.3 608.8 L 854.8 612.5 L 856.4 616.3 L 858.1 620.0 L 859.9 623.7 L 861.9 627.4 L 863.9 631.0 L 866.1 634.6 L 868.3 638.1 L 870.6 641.5 L 872.9 644.7 L 875.4 647.9 M 875.4 647.9 L 878.6 648.7 L 881.9 649.3 L 885.3 649.9 L 888.8 650.4 L 892.4 650.8 L 896.1 651.2 L 899.8 651.4 L 903.6 651.6 L 907.4 651.7 L 911.2 651.7 L 915.0 651.7 L 918.8 651.6 M 852.8 507.4 L 851.3 510.0 L 850.0 512.6 L 848.8 515.3 L 847.8 518.0 M 847.8 518.0 L 849.0 517.9 L 850.3 517.9 L 851.8 518.0 L 853.4 518.2 L 855.1 518.4 L 857.0 518.8 L 858.9 519.2 L 860.9 519.6 L 863.0 520.2 L 865.2 520.8 L 867.5 521.5 L 869.8 522.2 M 869.8 522.2 L 872.9 519.9 L 876.1 517.6 L 879.4 515.3 L 882.7 513.2 L 886.2 511.1 L 889.8 509.0 L 893.4 507.1 L 897.1 505.3 L 900.8 503.5 L 904.5 501.9 L 908.3 500.3 L 912.0 498.9 M 912.0 498.9 L 913.5 496.1 L 915.0 493.3 L 916.6 490.6 L 918.3 488.0 L 919.9 485.5 L 921.6 483.1 L 923.3 480.8 L 925.1 478.7 L 926.9 476.7 L 928.6 474.8 L 930.4 473.0 L 932.2 471.4 M 932.2 471.4 L 930.3 470.4 L 928.3 469.4 L 926.4 468.6 L 924.4 467.9 L 922.5 467.3 L 920.6 466.9 L 918.8 466.6 L 916.9 466.5  M 829.8 600.8 L 830.9 601.3 L 832.2 601.7 L 833.6 602.1 L 835.1 602.6 L 836.8 603.0 L 838.6 603.3 L 840.6 603.7 L 842.6 604.0 L 844.8 604.3 L 847.1 604.6 L 849.4 604.8 L 851.9 605.0 M 851.9 605.0 L 853.0 601.9 L 854.2 598.6 L 855.5 595.4 L 856.9 592.1 L 858.5 588.8 L 860.1 585.4 L 861.9 582.1 L 863.7 578.7 L 865.6 575.4 L 867.7 572.1 L 869.7 568.9 L 871.9 565.7 M 871.9 565.7 L 871.2 562.0 L 870.7 558.2 L 870.2 554.4 L 869.8 550.6 L 869.5 546.9 L 869.3 543.1 L 869.1 539.5 L 869.1 535.8 L 869.2 532.3 L 869.3 528.8 L 869.5 525.5 L 869.8 522.2 M 869.8 522.2 L 867.5 521.5 L 865.2 520.8 L 863.0 520.2 L 860.9 519.6 L 858.9 519.2 L 857.0 518.8 L 855.1 518.4 L 853.4 518.2 L 851.8 518.0 L 850.3 517.9 L 849.0 517.9 L 847.8 518.0 M 847.8 518.0 L 845.5 520.9 L 843.3 523.9 L 841.1 526.9 L 839.1 530.1 L 837.2 533.4 L 835.5 536.7 L 833.8 540.0 L 832.3 543.5 M 826.2 571.6 L 826.2 575.3 L 826.3 579.0 L 826.6 582.7 L 826.9 586.4 L 827.5 590.0 L 828.1 593.7 L 828.9 597.3 L 829.8 600.8 M 1027.2 671.3 L 1028.1 669.7 L 1028.9 667.9 L 1029.6 666.1 L 1030.2 664.1 L 1030.7 662.1 L 1031.1 660.0 L 1031.4 657.8 L 1031.6 655.5 L 1031.7 653.2 M 1031.7 653.2 L 1029.3 653.7 L 1026.8 654.2 L 1024.2 654.6 L 1021.5 654.9 L 1018.7 655.1 L 1015.8 655.2 L 1012.8 655.2 L 1009.7 655.2 L 1006.6 655.1 L 1003.4 654.9 L 1000.2 654.6 L 997.0 654.2 M 997.0 654.2 L 993.8 656.6 L 990.5 658.9 L 987.1 661.2 L 983.6 663.4 L 980.1 665.6 L 976.5 667.6 L 972.9 669.5 L 969.3 671.3 L 965.6 673.0 L 962.0 674.6 L 958.4 676.1 L 954.8 677.5 M 954.8 677.5 L 954.2 679.9 L 953.6 682.3 L 953.0 684.6 L 952.4 686.8 L 951.7 688.9 L 951.1 690.8 L 950.5 692.7 L 949.8 694.4 L 949.2 695.9 L 948.5 697.4 L 947.9 698.6 L 947.2 699.8 M 947.2 699.8 L 950.1 700.4 L 953.1 701.0 L 956.0 701.4 L 959.0 701.6 L 962.0 701.7 L 964.9 701.7  M 914.1 698.8 L 917.7 699.5 L 921.4 700.0 L 925.0 700.4 L 928.8 700.6 L 932.5 700.7 L 936.2 700.7 L 939.9 700.5 L 943.6 700.2 L 947.2 699.8 M 947.2 699.8 L 947.9 698.6 L 948.5 697.4 L 949.2 695.9 L 949.8 694.4 L 950.5 692.7 L 951.1 690.8 L 951.7 688.9 L 952.4 686.8 L 953.0 684.6 L 953.6 682.3 L 954.2 679.9 L 954.8 677.5 M 954.8 677.5 L 951.8 675.9 L 948.8 674.2 L 945.8 672.4 L 942.7 670.4 L 939.7 668.4 L 936.6 666.2 L 933.6 664.0 L 930.5 661.6 L 927.5 659.2 L 924.6 656.7 L 921.7 654.2 L 918.8 651.6 M 918.8 651.6 L 915.0 651.7 L 911.2 651.7 L 907.4 651.7 L 903.6 651.6 L 899.8 651.4 L 896.1 651.2 L 892.4 650.8 L 888.8 650.4 L 885.3 649.9 L 881.9 649.3 L 878.6 648.7 L 875.4 647.9 M 875.4 647.9 L 874.3 650.2 L 873.3 652.4 L 872.3 654.6 L 871.5 656.7 L 870.7 658.7 L 870.0 660.7 L 869.4 662.5 L 868.9 664.3 L 868.5 665.9 L 868.2 667.5 L 867.9 668.9 L 867.8 670.2 M 867.8 670.2 L 870.3 673.0 L 873.0 675.6 L 875.7 678.2 L 878.5 680.7 L 881.5 683.0 L 884.5 685.3 L 887.6 687.4 L 890.7 689.5 L 893.9 691.3" fill="none" stroke="#0c0b09" stroke-width="1.94" stroke-linejoin="round"/></g></g></svg>